<svg width="25" height="25" viewBox="0 0 25 25" fill="none" xmlns="http://www.w3.org/2000/svg">
<g clip-path="url(#clip0_106_1739)">
<path d="M20.8333 22.9168H4.16667C3.8904 22.9168 3.62545 22.8071 3.4301 22.6117C3.23475 22.4164 3.125 22.1514 3.125 21.8752V3.12516C3.125 2.8489 3.23475 2.58394 3.4301 2.38859C3.62545 2.19324 3.8904 2.0835 4.16667 2.0835H20.8333C21.1096 2.0835 21.3746 2.19324 21.5699 2.38859C21.7653 2.58394 21.875 2.8489 21.875 3.12516V21.8752C21.875 22.1514 21.7653 22.4164 21.5699 22.6117C21.3746 22.8071 21.1096 22.9168 20.8333 22.9168ZM19.7917 20.8335V4.16683H5.20833V20.8335H19.7917ZM7.29167 6.25016H11.4583V10.4168H7.29167V6.25016ZM7.29167 12.5002H17.7083V14.5835H7.29167V12.5002ZM7.29167 16.6668H17.7083V18.7502H7.29167V16.6668ZM13.5417 7.29183H17.7083V9.37516H13.5417V7.29183Z" fill="#FF1628"/>
</g>
<defs>
<clipPath id="clip0_106_1739">
<rect width="25" height="25" fill="white"/>
</clipPath>
</defs>
</svg>
