<svg width="25" height="25" viewBox="0 0 25 25" fill="none" xmlns="http://www.w3.org/2000/svg">
<path d="M17.8036 16.8149V24.4447C17.8036 24.543 17.7775 24.6394 17.7281 24.7243C17.6787 24.8092 17.6076 24.8794 17.5221 24.9278C17.4367 24.9763 17.3399 25.0012 17.2417 25C17.1435 24.9988 17.0473 24.9715 16.9631 24.9211L12.2521 22.0943L7.54121 24.9211C7.45687 24.9716 7.36063 24.9988 7.26232 25C7.16401 25.0011 7.06716 24.9761 6.98167 24.9276C6.89619 24.879 6.82513 24.8086 6.77577 24.7236C6.7264 24.6386 6.70051 24.5419 6.70072 24.4436V16.816C5.26418 15.6658 4.22034 14.0979 3.71346 12.3288C3.20658 10.5598 3.26168 8.67693 3.87116 6.94054C4.48063 5.20415 5.61438 3.69993 7.11573 2.63575C8.61708 1.57158 10.4119 1 12.2521 1C14.0924 1 15.8872 1.57158 17.3886 2.63575C18.8899 3.69993 20.0237 5.20415 20.6331 6.94054C21.2426 8.67693 21.2977 10.5598 20.7908 12.3288C20.2839 14.0979 19.2401 15.6658 17.8036 16.816V16.8149ZM8.92129 18.1172V21.5036L12.2521 19.5051L15.583 21.5036V18.1172C14.5247 18.5452 13.3937 18.7647 12.2521 18.7634C11.1106 18.7647 9.97956 18.5452 8.92129 18.1172V18.1172ZM12.2521 16.5429C14.0189 16.5429 15.7134 15.841 16.9627 14.5917C18.212 13.3424 18.9138 11.6479 18.9138 9.88115C18.9138 8.11436 18.212 6.41993 16.9627 5.17062C15.7134 3.92131 14.0189 3.21945 12.2521 3.21945C10.4853 3.21945 8.79092 3.92131 7.54161 5.17062C6.2923 6.41993 5.59044 8.11436 5.59044 9.88115C5.59044 11.6479 6.2923 13.3424 7.54161 14.5917C8.79092 15.841 10.4853 16.5429 12.2521 16.5429V16.5429Z" fill="#FF1628"/>
<path d="M12.2524 11.8849L9.50741 13.2124L10.0314 10.4009L7.81128 8.40916L10.8804 7.99844L12.2524 5.44043L13.6254 7.99844L16.6935 8.40916L14.4734 10.4009L14.9965 13.2124L12.2524 11.8849Z" fill="#FF1628"/>
</svg>
