<svg width="25" height="25" viewBox="0 0 25 25" fill="none" xmlns="http://www.w3.org/2000/svg">
<g clip-path="url(#clip0_106_1741)">
<path d="M13.5416 18.75V20.8333H17.7083V22.9167H7.29159V20.8333H11.4583V18.75H3.12492C2.84865 18.75 2.5837 18.6403 2.38835 18.4449C2.193 18.2496 2.08325 17.9846 2.08325 17.7083V4.16667C2.08325 3.8904 2.193 3.62545 2.38835 3.4301C2.5837 3.23475 2.84865 3.125 3.12492 3.125H21.8749C22.1512 3.125 22.4161 3.23475 22.6115 3.4301C22.8068 3.62545 22.9166 3.8904 22.9166 4.16667V17.7083C22.9166 17.9846 22.8068 18.2496 22.6115 18.4449C22.4161 18.6403 22.1512 18.75 21.8749 18.75H13.5416ZM4.16659 5.20833V16.6667H20.8333V5.20833H4.16659ZM10.4166 7.8125L15.6249 10.9375L10.4166 14.0625V7.8125Z" fill="#FF1628"/>
</g>
<defs>
<clipPath id="clip0_106_1741">
<rect width="25" height="25" fill="white"/>
</clipPath>
</defs>
</svg>
