<svg width="25" height="25" viewBox="0 0 25 25" fill="none" xmlns="http://www.w3.org/2000/svg">
<g clip-path="url(#clip0_106_1756)">
<path d="M15.625 4.16683H5.20833V20.8335H19.7917V8.3335H15.625V4.16683ZM3.125 3.11683C3.125 2.546 3.59063 2.0835 4.16563 2.0835H16.6667L21.875 7.29183V21.8679C21.876 22.0047 21.85 22.1403 21.7985 22.2671C21.747 22.3938 21.6711 22.5092 21.5751 22.6066C21.479 22.704 21.3647 22.7815 21.2387 22.8348C21.1127 22.888 20.9774 22.9159 20.8406 22.9168H4.15938C3.88581 22.9149 3.62398 22.8055 3.43044 22.6121C3.23689 22.4188 3.12718 22.1571 3.125 21.8835V3.11683ZM14.0927 15.0481C13.2191 15.5585 12.1896 15.7338 11.1963 15.5413C10.203 15.3487 9.31361 14.8015 8.69399 14.0016C8.07437 13.2017 7.76681 12.2037 7.82868 11.1938C7.89054 10.1839 8.31759 9.23095 9.03021 8.51266C9.74734 7.79566 10.7013 7.3648 11.7134 7.30084C12.7255 7.23688 13.7261 7.54421 14.5278 8.16522C15.3295 8.78623 15.8772 9.6783 16.0683 10.6742C16.2593 11.6702 16.0806 12.7016 15.5656 13.5752L17.8677 15.8772L16.3948 17.3512L14.0927 15.0491V15.0481ZM13.449 12.9314C13.6479 12.7392 13.8067 12.5093 13.9158 12.2552C14.025 12.001 14.0825 11.7276 14.0849 11.451C14.0873 11.1744 14.0346 10.9 13.9298 10.644C13.8251 10.388 13.6704 10.1554 13.4748 9.95976C13.2792 9.76415 13.0466 9.60945 12.7905 9.5047C12.5345 9.39995 12.2602 9.34724 11.9835 9.34964C11.7069 9.35205 11.4335 9.40952 11.1794 9.5187C10.9252 9.62789 10.6953 9.7866 10.5031 9.98558C10.1236 10.3785 9.91364 10.9048 9.91839 11.451C9.92313 11.9972 10.1422 12.5198 10.5285 12.906C10.9148 13.2923 11.4373 13.5114 11.9835 13.5162C12.5298 13.5209 13.056 13.3109 13.449 12.9314V12.9314Z" fill="#FF1628"/>
</g>
<defs>
<clipPath id="clip0_106_1756">
<rect width="25" height="25" fill="white"/>
</clipPath>
</defs>
</svg>
