<svg width="25" height="25" viewBox="0 0 25 25" fill="none" xmlns="http://www.w3.org/2000/svg">
<path fill-rule="evenodd" clip-rule="evenodd" d="M4.16675 1.56234C4.16675 1.27469 4.39993 1.0415 4.68758 1.0415H20.3126C20.6002 1.0415 20.8334 1.27469 20.8334 1.56234V15.104C20.8334 15.1066 20.8334 15.1093 20.8334 15.1119L20.8331 20.9538C20.8331 21.1596 20.712 21.346 20.524 21.4297L12.7114 24.9056C12.5767 24.9656 12.4228 24.9656 12.288 24.9056L4.47585 21.4297C4.28787 21.346 4.16675 21.1596 4.16675 20.9538V1.56234ZM6.25008 13.5415V3.12484H18.7501V13.5415H6.25008ZM6.25008 15.6248L6.25008 19.9389L12.4997 22.7196L18.7498 19.9388L18.75 15.6248H6.25008Z" fill="#FF1628"/>
</svg>
