<svg width="25" height="25" viewBox="0 0 25 25" fill="none" xmlns="http://www.w3.org/2000/svg">
<g clip-path="url(#clip0_106_1754)">
<path d="M15.625 4.16683H5.20833V20.8335H19.7917V8.3335H15.625V4.16683ZM3.125 3.11683C3.125 2.546 3.59063 2.0835 4.16563 2.0835H16.6667L21.875 7.29183V21.8679C21.876 22.0047 21.85 22.1403 21.7985 22.2671C21.747 22.3938 21.6711 22.5092 21.5751 22.6066C21.479 22.704 21.3647 22.7815 21.2387 22.8348C21.1127 22.888 20.9774 22.9159 20.8406 22.9168H4.15938C3.88581 22.9149 3.62398 22.8055 3.43044 22.6121C3.23689 22.4188 3.12718 22.1571 3.125 21.8835V3.11683ZM12.5 8.3335V12.5002H16.6667C16.6667 13.3243 16.4223 14.1298 15.9645 14.815C15.5066 15.5002 14.8559 16.0343 14.0945 16.3497C13.3332 16.665 12.4954 16.7475 11.6871 16.5868C10.8789 16.426 10.1364 16.0292 9.55372 15.4464C8.971 14.8637 8.57417 14.1213 8.41339 13.313C8.25262 12.5048 8.33514 11.667 8.6505 10.9056C8.96587 10.1443 9.49992 9.49355 10.1851 9.03571C10.8703 8.57787 11.6759 8.3335 12.5 8.3335Z" fill="#FF1628"/>
</g>
<defs>
<clipPath id="clip0_106_1754">
<rect width="25" height="25" fill="white"/>
</clipPath>
</defs>
</svg>
