<svg width="25" height="25" viewBox="0 0 25 25" fill="none" xmlns="http://www.w3.org/2000/svg">
<g clip-path="url(#clip0_106_1764)">
<path d="M11.7395 12.725L15.6249 6.25L23.9583 21.875H2.08325L9.37492 8.33333L11.7395 12.725V12.725ZM12.9062 14.8312L15.6114 19.7917H20.4864L15.5176 10.4771L12.9062 14.8312V14.8312ZM5.57075 19.7917H13.1791L9.37492 12.7281L5.57075 19.7917ZM5.72909 8.33333C5.03842 8.33333 4.37604 8.05897 3.88766 7.57059C3.39929 7.08221 3.12492 6.41983 3.12492 5.72917C3.12492 5.0385 3.39929 4.37612 3.88766 3.88774C4.37604 3.39937 5.03842 3.125 5.72909 3.125C6.41975 3.125 7.08213 3.39937 7.57051 3.88774C8.05888 4.37612 8.33325 5.0385 8.33325 5.72917C8.33325 6.41983 8.05888 7.08221 7.57051 7.57059C7.08213 8.05897 6.41975 8.33333 5.72909 8.33333Z" fill="#FF1628"/>
</g>
<defs>
<clipPath id="clip0_106_1764">
<rect width="25" height="25" fill="white"/>
</clipPath>
</defs>
</svg>
