<?xml version="1.0" encoding="utf-8"?>
<svg version="1.1" id="Layer_1" xmlns="http://www.w3.org/2000/svg" 
     xmlns:xlink="http://www.w3.org/1999/xlink" x="0px" y="0px"
     viewBox="0 0 12 8" style="enable-background:new 0 0 12 8;" xml:space="preserve">
<style type="text/css">
  .st0{fill:none;stroke:#FF1628;stroke-width:1;}
</style>
<path class="st0" d="M12,7.2c0,0.1-0.1,0.2-0.2,0.2c0,0-0.1,0-0.1,0c-0.1,0-0.1,0-0.2-0.1L9,4.8v1.9c0,0.4-0.3,0.8-0.8,0.8H0.8
	C0.3,7.5,0,7.2,0,6.8v-6C0,0.3,0.3,0,0.8,0h7.5C8.7,0,9,0.3,9,0.8v1.9l2.6-2.6C11.6,0,11.7,0,11.8,0c0.1,0,0.2,0.1,0.2,0.2V7.2z"/>
</svg>
