<svg width="25" height="25" viewBox="0 0 25 25" fill="none" xmlns="http://www.w3.org/2000/svg">
<g clip-path="url(#clip0_106_1714)">
<path d="M17.7083 2.0835V4.16683H20.8406C21.4115 4.16683 21.875 4.63037 21.875 5.2012V21.8825C21.875 22.4533 21.4115 22.9168 20.8406 22.9168H4.15937C3.58854 22.9168 3.125 22.4533 3.125 21.8825V5.2012C3.125 4.63037 3.58854 4.16683 4.15937 4.16683H7.29167V2.0835H17.7083ZM7.29167 6.25016H5.20833V20.8335H19.7917V6.25016H17.7083V8.3335H7.29167V6.25016ZM9.375 16.6668V18.7502H7.29167V16.6668H9.375ZM9.375 13.5418V15.6252H7.29167V13.5418H9.375ZM9.375 10.4168V12.5002H7.29167V10.4168H9.375ZM15.625 4.16683H9.375V6.25016H15.625V4.16683Z" fill="#FF1628"/>
</g>
<defs>
<clipPath id="clip0_106_1714">
<rect width="25" height="25" fill="white"/>
</clipPath>
</defs>
</svg>
