<svg width="25" height="25" viewBox="0 0 25 25" fill="none" xmlns="http://www.w3.org/2000/svg">
<path d="M15.2066 16.4495V23.8642C15.2066 23.9596 15.1813 24.0534 15.1333 24.1359C15.0852 24.2183 15.0161 24.2866 14.9331 24.3336C14.8501 24.3807 14.756 24.4049 14.6606 24.4037C14.5651 24.4026 14.4717 24.3761 14.3898 24.3271L9.81172 21.58L5.23364 24.3271C5.15168 24.3762 5.05815 24.4026 4.96261 24.4037C4.86708 24.4049 4.77296 24.3806 4.68988 24.3334C4.6068 24.2862 4.53775 24.2178 4.48978 24.1352C4.44181 24.0525 4.41664 23.9586 4.41685 23.8631V16.4505C3.02082 15.3328 2.00642 13.8091 1.51383 12.0899C1.02124 10.3707 1.07479 8.54101 1.66708 6.85358C2.25937 5.16616 3.36115 3.70436 4.82016 2.67019C6.27917 1.63603 8.02337 1.08057 9.81172 1.08057C11.6001 1.08057 13.3443 1.63603 14.8033 2.67019C16.2623 3.70436 17.3641 5.16616 17.9564 6.85358C18.5487 8.54101 18.6022 10.3707 18.1096 12.0899C17.617 13.8091 16.6026 15.3328 15.2066 16.4505V16.4495ZM6.5748 17.7151V21.006L9.81172 19.0638L13.0486 21.006V17.7151C12.0202 18.131 10.9211 18.3443 9.81172 18.3431C8.70236 18.3443 7.60323 18.131 6.5748 17.7151V17.7151ZM9.81172 16.1851C11.5287 16.1851 13.1753 15.5031 14.3894 14.289C15.6035 13.0749 16.2856 11.4282 16.2856 9.71128C16.2856 7.99431 15.6035 6.34766 14.3894 5.13358C13.1753 3.9195 11.5287 3.23743 9.81172 3.23743C8.09475 3.23743 6.44811 3.9195 5.23402 5.13358C4.01994 6.34766 3.33788 7.99431 3.33788 9.71128C3.33788 11.4282 4.01994 13.0749 5.23402 14.289C6.44811 15.5031 8.09475 16.1851 9.81172 16.1851V16.1851Z" fill="#FF1628"/>
<path d="M9.81223 11.6553L7.14464 12.9454L7.65383 10.2132L5.49634 8.2776L8.47889 7.87845L9.81223 5.39258L11.1465 7.87845L14.1281 8.2776L11.9706 10.2132L12.4789 12.9454L9.81223 11.6553Z" fill="#FF1628"/>
<mask id="mask0_108_1551" style="mask-type:alpha" maskUnits="userSpaceOnUse" x="7" y="1" width="17" height="24">
<path d="M14.9906 3.88379L8.6731 1.76301L7.87158 1L23.5656 1.00075L23.8199 24.4426L20.4933 24.4419H14.3432V16.1841L15.638 14.8893L16.9327 9.06286L14.9906 3.88379Z" fill="#D9D9D9"/>
</mask>
<g mask="url(#mask0_108_1551)">
<path d="M20.3858 16.4524V23.8671C20.3858 23.9626 20.3605 24.0563 20.3125 24.1388C20.2644 24.2213 20.1953 24.2895 20.1123 24.3366C20.0293 24.3836 19.9352 24.4078 19.8398 24.4067C19.7443 24.4055 19.6509 24.379 19.569 24.33L14.9909 21.5829L10.4128 24.33C10.3309 24.3791 10.2374 24.4056 10.1418 24.4067C10.0463 24.4078 9.95216 24.3835 9.86908 24.3363C9.786 24.2891 9.71695 24.2207 9.66898 24.1381C9.62101 24.0555 9.59584 23.9616 9.59605 23.866V16.4535C8.20002 15.3358 7.18562 13.812 6.69303 12.0928C6.20044 10.3737 6.25399 8.54394 6.84628 6.85651C7.43856 5.16909 8.54034 3.70729 9.99936 2.67312C11.4584 1.63896 13.2026 1.0835 14.9909 1.0835C16.7793 1.0835 18.5235 1.63896 19.9825 2.67312C21.4415 3.70729 22.5433 5.16909 23.1356 6.85651C23.7279 8.54394 23.7814 10.3737 23.2888 12.0928C22.7962 13.812 21.7818 15.3358 20.3858 16.4535V16.4524ZM11.754 17.718V21.0089L14.9909 19.0668L18.2278 21.0089V17.718C17.1994 18.134 16.1003 18.3472 14.9909 18.346C13.8816 18.3472 12.7824 18.134 11.754 17.718V17.718ZM14.9909 16.188C16.7079 16.188 18.3545 15.506 19.5686 14.2919C20.7827 13.0778 21.4648 11.4312 21.4648 9.71421C21.4648 7.99724 20.7827 6.35059 19.5686 5.13651C18.3545 3.92243 16.7079 3.24036 14.9909 3.24036C13.274 3.24036 11.6273 3.92243 10.4132 5.13651C9.19914 6.35059 8.51708 7.99724 8.51708 9.71421C8.51708 11.4312 9.19914 13.0778 10.4132 14.2919C11.6273 15.506 13.274 16.188 14.9909 16.188V16.188Z" fill="#FF1628"/>
</g>
</svg>
